<svg width="30" height="30" viewBox="0 0 30 30" fill="none" xmlns="http://www.w3.org/2000/svg">
<path d="M25.6066 4.39342C22.7735 1.56029 19.0066 0 15 0C10.9934 0 7.22648 1.56029 4.39336 4.39342C1.56029 7.22654 0 10.9934 0 15C0 19.0066 1.56029 22.7735 4.39336 25.6066C7.22648 28.4397 10.9933 30 15 30C15.4854 30 15.8789 29.6065 15.8789 29.1211C15.8789 28.6357 15.4854 28.2422 15 28.2422C7.69822 28.2422 1.75781 22.3018 1.75781 15C1.75781 7.69822 7.69822 1.75781 15 1.75781C22.3018 1.75781 28.2422 7.69822 28.2422 15V18.5303C28.2422 19.9922 27.0528 21.1816 25.5908 21.1816C24.1288 21.1816 22.9395 19.9922 22.9395 18.5303V15C22.9395 10.6222 19.3778 7.06055 15 7.06055C10.6222 7.06055 7.06055 10.6222 7.06055 15C7.06055 19.3778 10.6222 22.9395 15 22.9395C17.5966 22.9395 19.9061 21.6864 21.3555 19.7532C21.8871 21.5912 23.5839 22.9395 25.5908 22.9395C28.0221 22.9395 30 20.9615 30 18.5303V15C30 10.9934 28.4397 7.22654 25.6066 4.39342ZM15 21.1816C11.5914 21.1816 8.81836 18.4086 8.81836 15C8.81836 11.5914 11.5914 8.81836 15 8.81836C18.4086 8.81836 21.1816 11.5914 21.1816 15C21.1816 18.4086 18.4086 21.1816 15 21.1816Z" fill="#FD3018"/>
<path d="M25.6066 4.39342C22.7735 1.56029 19.0066 0 15 0V1.75781C22.3018 1.75781 28.2422 7.69822 28.2422 15V18.5303C28.2422 19.9922 27.0528 21.1816 25.5908 21.1816C24.1288 21.1816 22.9395 19.9922 22.9395 18.5303V15C22.9395 10.6222 19.3778 7.06055 15 7.06055V8.81836C18.4086 8.81836 21.1816 11.5914 21.1816 15C21.1816 18.4086 18.4086 21.1816 15 21.1816V22.9395C17.5966 22.9395 19.9061 21.6864 21.3555 19.7532C21.8871 21.5912 23.5839 22.9395 25.5908 22.9395C28.0221 22.9395 30 20.9615 30 18.5303V15C30 10.9934 28.4397 7.22654 25.6066 4.39342Z" fill="#E61E14"/>
</svg>
