<?xml version="1.0" encoding="iso-8859-1"?>
<!-- Generator: Adobe Illustrator 19.0.0, SVG Export Plug-In . SVG Version: 6.00 Build 0)  -->
<svg version="1.1" id="Layer_1" xmlns="http://www.w3.org/2000/svg" xmlns:xlink="http://www.w3.org/1999/xlink" x="0px" y="0px"
	 viewBox="0 0 512 512" style="enable-background:new 0 0 512 512;" xml:space="preserve">
<g>
	<path style="fill:#507C5C;" d="M472.592,483.988H39.408C17.679,483.988,0,466.311,0,444.579V145.781
		c0-21.73,17.679-39.41,39.408-39.41h433.183c21.73,0,39.408,17.679,39.408,39.41v47.969c0,8.595-6.969,15.562-15.562,15.562
		c-8.594,0-15.562-6.967-15.562-15.562v-47.969c0-4.569-3.716-8.285-8.284-8.285H39.408c-4.569,0-8.284,3.716-8.284,8.285v298.798
		c0,4.568,3.716,8.284,8.284,8.284h433.183c4.569,0,8.284-3.716,8.284-8.284v-167.31c0-8.595,6.969-15.562,15.562-15.562
		c8.594,0,15.562,6.967,15.562,15.562v167.31C512,466.311,494.321,483.988,472.592,483.988z"/>
	<path style="fill:#507C5C;" d="M340.296,137.498H171.704c-8.594,0-15.562-6.967-15.562-15.562V43.574
		c0-8.595,6.969-15.562,15.562-15.562h168.593c8.594,0,15.562,6.967,15.562,15.562v78.361
		C355.859,130.529,348.89,137.498,340.296,137.498z M187.266,106.373h137.468V59.137H187.266L187.266,106.373L187.266,106.373z"/>
</g>
<rect x="342.106" y="86.2" style="fill:#CFF09E;" width="76.769" height="97.358"/>
<path style="fill:#507C5C;" d="M418.886,199.115h-76.775c-8.594,0-15.562-6.967-15.562-15.562V86.193
	c0-8.595,6.969-15.562,15.562-15.562h76.775c8.594,0,15.562,6.967,15.562,15.562v97.359
	C434.448,192.148,427.48,199.115,418.886,199.115z M357.673,167.99h45.65v-66.235h-45.65V167.99z"/>
<rect x="93.114" y="86.2" style="fill:#CFF09E;" width="76.769" height="97.358"/>
<path style="fill:#507C5C;" d="M169.889,199.115H93.114c-8.594,0-15.562-6.967-15.562-15.562V86.193
	c0-8.595,6.969-15.562,15.562-15.562h76.775c8.594,0,15.562,6.967,15.562,15.562v97.359
	C185.451,192.148,178.483,199.115,169.889,199.115z M108.676,167.99h45.65v-66.235h-45.65V167.99z"/>
<polygon style="fill:#CFF09E;" points="354.158,262.889 294.128,262.889 294.128,202.859 217.872,202.859 217.872,262.889 
	157.842,262.889 157.842,339.145 217.872,339.145 217.872,399.173 294.128,399.173 294.128,339.145 354.158,339.145 "/>
<path style="fill:#507C5C;" d="M294.128,414.736h-76.255c-8.594,0-15.562-6.967-15.562-15.562v-44.468h-44.468
	c-8.594,0-15.562-6.967-15.562-15.562v-76.255c0-8.595,6.969-15.562,15.562-15.562h44.468v-44.466
	c0-8.595,6.969-15.562,15.562-15.562h76.255c8.594,0,15.562,6.967,15.562,15.562v44.466h44.468c8.594,0,15.562,6.967,15.562,15.562
	v76.255c0,8.595-6.969,15.562-15.562,15.562H309.69v44.468C309.69,407.768,302.721,414.736,294.128,414.736z M233.435,383.611
	h45.131v-44.468c0-8.595,6.969-15.562,15.562-15.562h44.468V278.45h-44.468c-8.594,0-15.562-6.967-15.562-15.562v-44.466h-45.131
	v44.466c0,8.595-6.969,15.562-15.562,15.562h-44.468v45.131h44.468c8.594,0,15.562,6.967,15.562,15.562V383.611z"/>
<g>
</g>
<g>
</g>
<g>
</g>
<g>
</g>
<g>
</g>
<g>
</g>
<g>
</g>
<g>
</g>
<g>
</g>
<g>
</g>
<g>
</g>
<g>
</g>
<g>
</g>
<g>
</g>
<g>
</g>
</svg>
