<svg width="30" height="30" viewBox="0 0 30 30" fill="none" xmlns="http://www.w3.org/2000/svg">
<g clip-path="url(#clip0)">
<path d="M27.752 0.0170898H16.7065C15.465 0.0170898 14.4585 1.02357 14.4585 2.26512V6.94275C14.4585 8.1843 15.465 9.19078 16.7065 9.19078H17.785L19.1245 11.5107C19.3172 11.8446 19.7991 11.8446 19.9919 11.5107L21.3313 9.19078H27.752C28.9935 9.19078 30 8.1843 30 6.94275V2.26512C30.0001 1.02357 28.9936 0.0170898 27.752 0.0170898Z" fill="#C3E9FB"/>
<path d="M27.7519 0.0170898H22.199V9.19084H27.7519C28.9934 9.19084 29.9999 8.18435 29.9999 6.94281V2.26512C29.9999 1.02357 28.9934 0.0170898 27.7519 0.0170898Z" fill="#99DDFF"/>
<path d="M1.65584 6.59074L4.26538 3.97254C4.68214 3.55578 5.14746 3.57825 5.51494 3.94568L10.9805 9.41124C11.3332 9.76392 11.3332 10.3358 10.9805 10.6885L7.914 13.755C7.47454 14.1944 7.47454 14.9069 7.914 15.3463L15.0637 22.496C15.4376 22.87 16.0439 22.87 16.4179 22.496L19.6859 19.228C20.0386 18.8753 20.6104 18.8753 20.9631 19.228L26.4429 24.7078C26.7956 25.0605 26.7956 25.6324 26.4429 25.985L24.5956 27.8323C23.6902 28.7378 22.5688 29.405 21.3313 29.7339C21.2742 29.7491 21.2174 29.7636 21.161 29.7773C18.6968 30.3793 16.0978 29.6177 14.3041 27.824L2.05521 15.5752C1.0585 14.5785 0.365727 13.3104 0.110653 11.9241C-0.506637 8.56907 1.65584 6.59074 1.74964 6.48793" fill="#FF405C"/>
<path d="M18.7389 5.46117C19.2426 5.46117 19.6509 5.05286 19.6509 4.54919C19.6509 4.04551 19.2426 3.63721 18.7389 3.63721C18.2352 3.63721 17.8269 4.04551 17.8269 4.54919C17.8269 5.05286 18.2352 5.46117 18.7389 5.46117Z" fill="#004DB6"/>
<path d="M22.1991 5.46117C22.7028 5.46117 23.1111 5.05286 23.1111 4.54919C23.1111 4.04551 22.7028 3.63721 22.1991 3.63721C21.6954 3.63721 21.2871 4.04551 21.2871 4.54919C21.2871 5.05286 21.6954 5.46117 22.1991 5.46117Z" fill="#004DB6"/>
<path d="M25.6591 5.46117C26.1627 5.46117 26.571 5.05286 26.571 4.54919C26.571 4.04551 26.1627 3.63721 25.6591 3.63721C25.1554 3.63721 24.7471 4.04551 24.7471 4.54919C24.7471 5.05286 25.1554 5.46117 25.6591 5.46117Z" fill="#192B80"/>
<path d="M23.1109 4.54919C23.1109 4.04554 22.7026 3.63721 22.199 3.63721V5.46117C22.7027 5.46117 23.1109 5.05284 23.1109 4.54919Z" fill="#192B80"/>
<path d="M26.443 24.7075L20.9633 19.2278C20.6106 18.8751 20.0387 18.8751 19.686 19.2278L16.418 22.4958C16.0441 22.8698 15.4378 22.8698 15.0638 22.4958L11.4503 18.8823L8.40649 21.9262L14.3161 27.8358C16.088 29.6076 18.6495 30.3685 21.0885 29.7944C21.139 29.7825 21.1898 29.7701 21.2407 29.7571C22.5161 29.4328 23.6737 28.754 24.6043 27.8235L26.443 25.9848C26.7957 25.6321 26.7957 25.0603 26.443 24.7075Z" fill="#C1126B"/>
</g>
<defs>
<clipPath id="clip0">
<rect width="30" height="30" fill="white"/>
</clipPath>
</defs>
</svg>
