<svg height="50" width="50" xmlns="http://www.w3.org/2000/svg"><path d="m0 0h50v50h-50z" fill="#cf0023"/><path d="m0 39.1h.3l.3-.23.3.23.3-.46h.3l.3.23.3-.46.3.23.3-.46.6.46.3-.69.3.46h1.2l.3.23h.3l.3.69.3-.46h.6l.3-.23.3.23.3-.23.3.46.3.23h.3l.3-.46h.3l.3.23.3-.46.3.46h.3l.3.23.3-.23.3.23h.3l.3-.69.3.46.3.23.3-.23.3.23h.3l.3-.46.3.23.3-.69.3.46.3.23.3-.69.3.46.3-.23.3.23.6-.46.3-.92.3-.69.3-.46.6-1.38.3-1.15.3.46.3-.23.6 2.76.6 1.38h.3l.3-.46.3.23.3-.69.3-1.15.3-5.23.3-14.72.3-13.11.3 24.38.3 20.01.3-1.38.3-5.98.3-2.76.3.23h.3l.3.23.6-.46h.3l.3-.46.3.23.3-.46.6.46.3-.69h.3l1.2-.23.6-.46h.3l.3-.69.3-.23.3-.46.3-.23.6-1.38.9-1.38h.3l.3-.92.3-.46.6-.46.3.46.3.69.3 1.15.3 1.61.6 2.3.3.92.3.46.3.69.3.46.3-.23.3.69.3-.23.3-.46h.3l.3-.46.6.46.3-.46.3.46.3-.23.3-.46.3.23.3-.23.6.46h.3l.3.23.3-.23h.3l.3.23h.3l.3.23h.3l.3-.23.3.69.3-.69.3.23h.3l.3-.23.3.23.3-.23.6.46.3-.69.3.46.3.23h1.4" fill="none" stroke="#fff"/></svg>