<svg width="222" height="115" viewBox="0 0 222 115" fill="none" xmlns="http://www.w3.org/2000/svg">
<g clip-path="url(#clip0)">
<rect width="222" height="115" fill="white"/>
<path d="M34 8H134V108H34V8Z" fill="white"/>
<path d="M140.5 58C140.5 88.6273 115.229 113.5 84 113.5C52.7712 113.5 27.5 88.6273 27.5 58C27.5 27.3727 52.7712 2.5 84 2.5C115.229 2.5 140.5 27.3727 140.5 58Z" stroke="#188469" stroke-width="3"/>
<path d="M34 86.1996H34.6L35.2 85.7396L35.8 86.1996L36.4 85.2796H37L37.6 85.7396L38.2 84.8196L38.8 85.2796L39.4 84.3596L40.6 85.2796L41.2 83.8996L41.8 84.8196H44.2L44.8 85.2796H45.4L46 86.6596L46.6 85.7396H47.8L48.4 85.2796L49 85.7396L49.6 85.2796L50.2 86.1996L50.8 86.6596H51.4L52 85.7396H52.6L53.2 86.1996L53.8 85.2796L54.4 86.1996H55L55.6 86.6596L56.2 86.1996L56.8 86.6596H57.4L58 85.2796L58.6 86.1996L59.2 86.6596L59.8 86.1996L60.4 86.6596H61L61.6 85.7396L62.2 86.1996L62.8 84.8196L63.4 85.7396L64 86.1996L64.6 84.8196L65.2 85.7396L65.8 85.2796L66.4 85.7396L67.6 84.8196L68.2 82.9796L68.8 81.5996L69.4 80.6796L70.6 77.9196L71.2 75.6196L71.8 76.5396L72.4 76.0796L73.6 81.5996L74.8 84.3596H75.4L76 83.4396L76.6 83.8996L77.2 82.5196L77.8 80.2196L78.4 69.7596L79 40.3196L79.6 14.0996L80.2 62.8596L80.8 102.88L81.4 100.12L82 88.1596L82.6 82.6396L83.2 83.0996H83.8L84.4 83.5596L85.6 82.6396H86.2L86.8 81.7196L87.4 82.1796L88 81.2596L89.2 82.1796L89.8 80.7996H90.4L92.8 80.3396L94 79.4196H94.6L95.2 78.0396L95.8 77.5796L96.4 76.6596L97 76.1996L98.2 73.4396L100 70.6796H100.6L101.2 68.8396L101.8 67.9196L103 66.9996L103.6 67.9196L104.2 69.2996L104.8 71.5996L105.4 74.8196L106.6 79.4196L107.2 81.2596L107.8 82.1796L108.4 83.5596L109 84.4796L109.6 84.0196L110.2 85.3996L110.8 84.9396L111.4 84.0196H112L112.6 83.0996L113.8 84.0196L114.4 83.0996L115 84.0196L115.6 83.5596L116.2 82.6396L116.8 83.0996L117.4 82.6396L118.6 83.5596H119.2L119.8 84.0196L120.4 83.5596H121L121.6 84.0196H122.2L122.8 84.4796H123.4L124 84.0196L124.6 85.3996L125.2 84.0196L125.8 84.4796H126.4L127 84.0196L127.6 84.4796L128.2 84.0196L129.4 84.9396L130 83.5596L130.6 84.4796L131.2 84.9396H134" stroke="#188469" stroke-width="2"/>
<rect x="119" y="37" width="59" height="41" fill="white"/>
<rect x="-11" y="37" width="59" height="41" fill="white"/>
<path d="M10.1084 43.6719L17.0811 61.0742L24.0537 43.6719H27.7012V65H24.8887V56.6943L25.1523 47.7295L18.1504 65H15.9971L9.00977 47.7734L9.28809 56.6943V65H6.47559V43.6719H10.1084ZM49.0732 55.0244C49.0732 57.1143 48.7217 58.9404 48.0186 60.5029C47.3154 62.0557 46.3193 63.2422 45.0303 64.0625C43.7412 64.8828 42.2373 65.293 40.5186 65.293C38.8389 65.293 37.3496 64.8828 36.0508 64.0625C34.752 63.2324 33.7412 62.0557 33.0186 60.5322C32.3057 58.999 31.9395 57.2266 31.9199 55.2148V53.6768C31.9199 51.626 32.2764 49.8145 32.9893 48.2422C33.7021 46.6699 34.708 45.4688 36.0068 44.6387C37.3154 43.7988 38.8096 43.3789 40.4893 43.3789C42.1982 43.3789 43.7021 43.7939 45.001 44.624C46.3096 45.4443 47.3154 46.6406 48.0186 48.2129C48.7217 49.7754 49.0732 51.5967 49.0732 53.6768V55.0244ZM46.2754 53.6475C46.2754 51.1182 45.7676 49.1797 44.752 47.832C43.7363 46.4746 42.3154 45.7959 40.4893 45.7959C38.7119 45.7959 37.3105 46.4746 36.2852 47.832C35.2695 49.1797 34.7471 51.0547 34.7178 53.457V55.0244C34.7178 57.4756 35.2305 59.4043 36.2559 60.8105C37.291 62.207 38.7119 62.9053 40.5186 62.9053C42.335 62.9053 43.7412 62.2461 44.7373 60.9277C45.7334 59.5996 46.2461 57.7002 46.2754 55.2295V53.6475ZM69.6836 65H66.8564L56.1191 48.5645V65H53.292V43.6719H56.1191L66.8857 60.1807V43.6719H69.6836V65ZM103.712 45.9863H96.8564V65H94.0586V45.9863H87.2178V43.6719H103.712V45.9863ZM122.872 55.0244C122.872 57.1143 122.521 58.9404 121.817 60.5029C121.114 62.0557 120.118 63.2422 118.829 64.0625C117.54 64.8828 116.036 65.293 114.317 65.293C112.638 65.293 111.148 64.8828 109.85 64.0625C108.551 63.2324 107.54 62.0557 106.817 60.5322C106.104 58.999 105.738 57.2266 105.719 55.2148V53.6768C105.719 51.626 106.075 49.8145 106.788 48.2422C107.501 46.6699 108.507 45.4688 109.806 44.6387C111.114 43.7988 112.608 43.3789 114.288 43.3789C115.997 43.3789 117.501 43.7939 118.8 44.624C120.108 45.4443 121.114 46.6406 121.817 48.2129C122.521 49.7754 122.872 51.5967 122.872 53.6768V55.0244ZM120.074 53.6475C120.074 51.1182 119.566 49.1797 118.551 47.832C117.535 46.4746 116.114 45.7959 114.288 45.7959C112.511 45.7959 111.109 46.4746 110.084 47.832C109.068 49.1797 108.546 51.0547 108.517 53.457V55.0244C108.517 57.4756 109.029 59.4043 110.055 60.8105C111.09 62.207 112.511 62.9053 114.317 62.9053C116.134 62.9053 117.54 62.2461 118.536 60.9277C119.532 59.5996 120.045 57.7002 120.074 55.2295V53.6475ZM134.913 56.3721H129.903V65H127.076V43.6719H134.137C136.539 43.6719 138.385 44.2188 139.674 45.3125C140.973 46.4062 141.622 47.998 141.622 50.0879C141.622 51.416 141.261 52.5732 140.538 53.5596C139.825 54.5459 138.829 55.2832 137.55 55.7715L142.56 64.8242V65H139.542L134.913 56.3721ZM129.903 54.0723H134.225C135.621 54.0723 136.729 53.7109 137.55 52.9883C138.38 52.2656 138.795 51.2988 138.795 50.0879C138.795 48.7695 138.399 47.7588 137.608 47.0557C136.827 46.3525 135.694 45.9961 134.21 45.9863H129.903V54.0723ZM159.142 45.9863H152.286V65H149.488V45.9863H142.647V43.6719H159.142V45.9863ZM174.361 55.1416H165.118V62.7002H175.855V65H162.306V43.6719H175.709V45.9863H165.118V52.8418H174.361V55.1416ZM195.045 58.2324C194.781 60.4883 193.946 62.2314 192.54 63.4619C191.144 64.6826 189.283 65.293 186.959 65.293C184.439 65.293 182.418 64.3896 180.895 62.583C179.381 60.7764 178.624 58.3594 178.624 55.332V53.2812C178.624 51.2988 178.976 49.5557 179.679 48.0518C180.392 46.5479 181.397 45.3955 182.696 44.5947C183.995 43.7842 185.499 43.3789 187.208 43.3789C189.474 43.3789 191.29 44.0137 192.657 45.2832C194.024 46.543 194.82 48.291 195.045 50.5273H192.218C191.974 48.8281 191.441 47.5977 190.621 46.8359C189.811 46.0742 188.673 45.6934 187.208 45.6934C185.411 45.6934 184 46.3574 182.975 47.6855C181.959 49.0137 181.451 50.9033 181.451 53.3545V55.4199C181.451 57.7344 181.935 59.5752 182.901 60.9424C183.868 62.3096 185.221 62.9932 186.959 62.9932C188.521 62.9932 189.718 62.6416 190.548 61.9385C191.388 61.2256 191.944 59.9902 192.218 58.2324H195.045ZM215.289 65H212.462V55.1416H201.71V65H198.897V43.6719H201.71V52.8418H212.462V43.6719H215.289V65Z" fill="#188469"/>
</g>
<defs>
<clipPath id="clip0">
<rect width="222" height="115" fill="white"/>
</clipPath>
</defs>
</svg>
