<svg xmlns="http://www.w3.org/2000/svg" viewBox="0 0 229.54 100"><defs><style>.cls-1,.cls-2{fill:none;stroke:#1b8569;}.cls-1{stroke-width:3px;}.cls-2{stroke-width:5px;}.cls-3{fill:#1b8569;}</style></defs><title>asdAsset 2denis</title><g id="Layer_2" data-name="Layer 2"><g id="Layer_1-2" data-name="Layer 1"><path class="cls-1" d="M14,78.28h.45l.45-.47.45.47.45-.93h.45l.45.46.45-.92.45.46.45-.92.9.92L19.4,76l.45.92h1.8l.45.46h.45L23,78.74l.45-.93h.9l.45-.46.45.46.45-.46.45.93.45.46h.45l.45-.93H28l.45.47.45-.93.45.93h.45l.45.46.45-.46.45.46h.45L32,77.35l.45.93.45.46.45-.46.45.46h.45l.45-.93.45.47.45-1.39.45.92.45.47L37,76.89l.45.92.45-.46.45.46.9-.92.45-1.84.45-1.39.45-.92.9-2.76.45-2.31.45.92.45-.46.9,5.53.9,2.77h.45l.45-.92L46,76l.45-1.38.45-2.31L47.3,61.8l.45-29.52L48.2,6l.45,48.88L49.1,95l.45-2.77.45-12,.45-5.53.45.46h.45l.45.46.9-.92h.45l.45-.92.45.46.45-.93.9.93.45-1.39h.45l1.8-.46.9-.92h.45l.45-1.38.45-.47.45-.92.45-.46.9-2.77,1.35-2.76H64l.45-1.85.45-.92.9-.92.45.92.45,1.38.45,2.31.45,3.23.9,4.61.45,1.84.45.93.45,1.38.45.92.45-.46.45,1.38L71.6,77l.45-.92h.45l.45-.92.9.92.45-.92.45.92.45-.46.45-.92.45.46.45-.46.9.92h.45l.45.46.45-.46h.45l.45.46h.45l.45.46h.45l.45-.46L82,77.47l.45-1.38.45.46h.45l.45-.46.45.46.45-.46.9.92L86,75.63l.45.92.45.46H89"/><path class="cls-2" d="M94.93,65.46A47.5,47.5,0,1,1,93.55,31"/><path class="cls-3" d="M73.4,40l.07,1.76a5.86,5.86,0,0,1,4.71-2.05q3.31,0,4.52,2.55a5.85,5.85,0,0,1,5.06-2.55q5.2,0,5.3,5.52V55.87H90.35V45.41a3.58,3.58,0,0,0-.78-2.53A3.38,3.38,0,0,0,87,42a3.55,3.55,0,0,0-2.5.91,3.64,3.64,0,0,0-1.16,2.41V55.87H80.58V45.49q0-3.47-3.39-3.46a3.62,3.62,0,0,0-3.64,2.27V55.87H70.84V40Zm23,7.78a9.37,9.37,0,0,1,.91-4.19,6.74,6.74,0,0,1,6.28-3.88A6.66,6.66,0,0,1,108.86,42a8.58,8.58,0,0,1,2,6v.19a9.48,9.48,0,0,1-.89,4.16,6.66,6.66,0,0,1-2.54,2.86,7,7,0,0,1-3.78,1,6.69,6.69,0,0,1-5.23-2.24,8.62,8.62,0,0,1-2-5.93Zm2.73.32a6.84,6.84,0,0,0,1.21,4.24A4,4,0,0,0,103.66,54,3.9,3.9,0,0,0,107,52.34a7.45,7.45,0,0,0,1.21-4.54,6.72,6.72,0,0,0-1.24-4.22,4.11,4.11,0,0,0-6.52,0A7.38,7.38,0,0,0,99.17,48.12ZM116.83,40l.09,2a5.78,5.78,0,0,1,4.75-2.28q5,0,5.07,5.67V55.87H124V45.38a3.61,3.61,0,0,0-.8-2.53,3.08,3.08,0,0,0-2.38-.82,3.93,3.93,0,0,0-2.32.7A4.83,4.83,0,0,0,117,44.58V55.87h-2.71V40Zm16.94,15.85h-2.71V40h2.71Zm-2.93-20a1.68,1.68,0,0,1,.39-1.12,1.56,1.56,0,0,1,1.2-.45,1.53,1.53,0,0,1,1.2.45,1.6,1.6,0,0,1,.41,1.12,1.53,1.53,0,0,1-.41,1.1,1.56,1.56,0,0,1-1.2.44,1.59,1.59,0,0,1-1.2-.44A1.61,1.61,0,0,1,130.84,35.82Zm10.95.36V40h3v2.1h-3V52a2.24,2.24,0,0,0,.4,1.43,1.68,1.68,0,0,0,1.35.47,6.48,6.48,0,0,0,1.29-.18v2.2a7.72,7.72,0,0,1-2.08.29A3.36,3.36,0,0,1,140,55.07a4.72,4.72,0,0,1-.93-3.12V42.12H136.2V40h2.88V36.18Zm5.13,11.62a9.37,9.37,0,0,1,.91-4.19,6.8,6.8,0,0,1,2.55-2.87,7,7,0,0,1,3.73-1A6.68,6.68,0,0,1,159.34,42a8.58,8.58,0,0,1,2,6v.19a9.48,9.48,0,0,1-.89,4.16,6.66,6.66,0,0,1-2.54,2.86,7,7,0,0,1-3.78,1,6.67,6.67,0,0,1-5.23-2.24,8.58,8.58,0,0,1-2-5.93Zm2.73.32a6.84,6.84,0,0,0,1.21,4.24A4,4,0,0,0,154.14,54a3.87,3.87,0,0,0,3.28-1.61,7.45,7.45,0,0,0,1.22-4.54,6.72,6.72,0,0,0-1.25-4.22,4.1,4.1,0,0,0-6.51,0A7.38,7.38,0,0,0,149.65,48.12Zm22.76-5.67a8,8,0,0,0-1.33-.1,3.57,3.57,0,0,0-3.62,2.27V55.87h-2.71V40h2.63l.05,1.83a4.23,4.23,0,0,1,3.78-2.12,2.86,2.86,0,0,1,1.2.2Zm6.91-6.27V40h3v2.1h-3V52a2.18,2.18,0,0,0,.4,1.43,1.68,1.68,0,0,0,1.35.47,6.48,6.48,0,0,0,1.29-.18v2.2a7.72,7.72,0,0,1-2.08.29,3.36,3.36,0,0,1-2.74-1.09,4.72,4.72,0,0,1-.93-3.12V42.12h-2.88V40h2.88V36.18Zm12.72,20a6.94,6.94,0,0,1-5.25-2.11,7.89,7.89,0,0,1-2-5.66v-.5a9.5,9.5,0,0,1,.9-4.21,7,7,0,0,1,2.52-2.9,6.33,6.33,0,0,1,3.51-1.05,6,6,0,0,1,4.81,2,8.85,8.85,0,0,1,1.71,5.83v1.13H187.48a5.74,5.74,0,0,0,1.36,3.8A4.37,4.37,0,0,0,192.18,54a4.76,4.76,0,0,0,2.44-.58,6.11,6.11,0,0,0,1.74-1.56L198,53.1A6.64,6.64,0,0,1,192,56.16ZM191.7,42a3.6,3.6,0,0,0-2.75,1.2,5.73,5.73,0,0,0-1.38,3.34h7.94v-.21a5.14,5.14,0,0,0-1.11-3.19A3.42,3.42,0,0,0,191.7,42Zm16,12a3.88,3.88,0,0,0,2.53-.88,3.1,3.1,0,0,0,1.2-2.19H214a5,5,0,0,1-.94,2.59,6.2,6.2,0,0,1-2.32,2,7.06,7.06,0,0,1-8.2-1.42,8.65,8.65,0,0,1-1.9-5.92v-.45a9.51,9.51,0,0,1,.85-4.12,6.45,6.45,0,0,1,2.43-2.8,7,7,0,0,1,3.76-1,6.33,6.33,0,0,1,4.43,1.6A5.69,5.69,0,0,1,214,45.47h-2.57A3.74,3.74,0,0,0,210.29,43a3.59,3.59,0,0,0-2.58-1,3.8,3.8,0,0,0-3.21,1.49,7,7,0,0,0-1.12,4.29v.51a6.84,6.84,0,0,0,1.12,4.22A3.82,3.82,0,0,0,207.73,54Zm12.05-12a5.78,5.78,0,0,1,4.69-2.21q5,0,5.07,5.67V55.87h-2.71V45.38a3.66,3.66,0,0,0-.79-2.53,3.12,3.12,0,0,0-2.39-.82,3.93,3.93,0,0,0-2.32.7,4.83,4.83,0,0,0-1.55,1.85V55.87h-2.71V33.37h2.71Z"/></g></g></svg>