<svg width="222" height="115" viewBox="0 0 222 115" fill="none" xmlns="http://www.w3.org/2000/svg">
<g clip-path="url(#clip0)">
<rect width="222" height="115" fill="white"/>
<path d="M38 8H138V108H38V8Z" fill="white"/>
<path d="M39 86.2787H39.588L40.176 85.8175L40.764 86.2787L41.352 85.3564H41.94L42.528 85.8175L43.116 84.8952L43.704 85.3564L44.292 84.4341L45.468 85.3564L46.056 83.973L46.644 84.8952H48.996L49.584 85.3564H50.172L50.76 86.7398L51.348 85.8175H52.524L53.112 85.3564L53.7 85.8175L54.288 85.3564L54.876 86.2787L55.464 86.7398H56.052L56.64 85.8175H57.228L57.816 86.2787L58.404 85.3564L58.992 86.2787H59.58L60.168 86.7398L60.756 86.2787L61.344 86.7398H61.932L62.52 85.3564L63.108 86.2787L63.696 86.7398L64.284 86.2787L64.872 86.7398H65.46L66.048 85.8175L66.636 86.2787L67.224 84.8952L67.812 85.8175L68.4 86.2787L68.988 84.8952L69.576 85.8175L70.164 85.3564L70.752 85.8175L71.928 84.8952L72.516 83.0507L73.104 81.6673L73.692 80.745L74.868 77.9781L75.456 75.6725L76.044 76.5947L76.632 76.1336L77.808 81.6673L78.984 84.4341H79.572L80.16 83.5118L80.748 83.973L81.336 82.5895L81.924 80.2839L82.512 69.7979L83.1 40.285L83.688 14L84.276 62.8808L84.864 103L85.452 100.233L86.04 88.2435L86.628 82.7098L87.216 83.171H87.804L88.392 83.6321L89.568 82.7098H90.156L90.744 81.7876L91.332 82.2487L91.92 81.3264L93.096 82.2487L93.684 80.8653H94.272L96.624 80.4041L97.8 79.4819H98.388L98.976 78.0984L99.564 77.6373L100.152 76.715L100.74 76.2539L101.916 73.487L103.68 70.7202H104.268L104.856 68.8756L105.444 67.9534L106.62 67.0311L107.208 67.9534L107.796 69.3368L108.384 71.6425L108.972 74.8705L110.148 79.4819L110.736 81.3264L111.324 82.2487L111.912 83.6321L112.5 84.5544L113.088 84.0933L113.676 85.4767L114.264 85.0155L114.852 84.0933H115.44L116.028 83.171L117.204 84.0933L117.792 83.171L118.38 84.0933L118.968 83.6321L119.556 82.7098L120.144 83.171L120.732 82.7098L121.908 83.6321H122.496L123.084 84.0933L123.672 83.6321H124.26L124.848 84.0933H125.436L126.024 84.5544H126.612L127.2 84.0933L127.788 85.4767L128.376 84.0933L128.964 84.5544H129.552L130.14 84.0933L130.728 84.5544L131.316 84.0933L132.492 85.0155L133.08 83.6321L133.668 84.5544L134.256 85.0155H137" stroke="#CF0023" stroke-width="2"/>
<circle cx="88" cy="58" r="55.5" stroke="#188469" stroke-width="3"/>
<rect x="123" y="37" width="59" height="41" fill="white"/>
<rect x="-7" y="37" width="59" height="41" fill="white"/>
<path d="M23.1709 49.1504L23.2734 50.8057C24.3867 49.5068 25.9102 48.8574 27.8438 48.8574C29.9629 48.8574 31.4131 49.668 32.1943 51.2891C33.3467 49.668 34.9678 48.8574 37.0576 48.8574C38.8057 48.8574 40.1045 49.3408 40.9541 50.3076C41.8135 51.2744 42.2529 52.7002 42.2725 54.585V65H38.7129V54.6875C38.7129 53.6816 38.4932 52.9443 38.0537 52.4756C37.6143 52.0068 36.8867 51.7725 35.8711 51.7725C35.0605 51.7725 34.3965 51.9922 33.8789 52.4316C33.3711 52.8613 33.0146 53.4277 32.8096 54.1309L32.8242 65H29.2646V54.5703C29.2158 52.7051 28.2637 51.7725 26.4082 51.7725C24.9824 51.7725 23.9717 52.3535 23.376 53.5156V65H19.8164V49.1504H23.1709ZM45.2607 56.9287C45.2607 55.376 45.5684 53.9795 46.1836 52.7393C46.7988 51.4893 47.6631 50.5322 48.7764 49.8682C49.8896 49.1943 51.1689 48.8574 52.6143 48.8574C54.7529 48.8574 56.4863 49.5459 57.8145 50.9229C59.1523 52.2998 59.875 54.126 59.9824 56.4014L59.9971 57.2363C59.9971 58.7988 59.6943 60.1953 59.0889 61.4258C58.4932 62.6562 57.6338 63.6084 56.5107 64.2822C55.3975 64.9561 54.1084 65.293 52.6436 65.293C50.4072 65.293 48.6152 64.5508 47.2676 63.0664C45.9297 61.5723 45.2607 59.585 45.2607 57.1045V56.9287ZM48.8203 57.2363C48.8203 58.8672 49.1572 60.1465 49.8311 61.0742C50.5049 61.9922 51.4424 62.4512 52.6436 62.4512C53.8447 62.4512 54.7773 61.9824 55.4414 61.0449C56.1152 60.1074 56.4521 58.7354 56.4521 56.9287C56.4521 55.3271 56.1055 54.0576 55.4121 53.1201C54.7285 52.1826 53.7959 51.7139 52.6143 51.7139C51.4521 51.7139 50.5293 52.1777 49.8457 53.1055C49.1621 54.0234 48.8203 55.4004 48.8203 57.2363ZM66.3105 49.1504L66.4131 50.9814C67.585 49.5654 69.123 48.8574 71.0273 48.8574C74.3281 48.8574 76.0078 50.7471 76.0664 54.5264V65H72.5068V54.7314C72.5068 53.7256 72.2871 52.9834 71.8477 52.5049C71.418 52.0166 70.71 51.7725 69.7236 51.7725C68.2881 51.7725 67.2188 52.4219 66.5156 53.7207V65H62.9561V49.1504H66.3105Z" fill="#188469"/>
<path d="M95.2842 45.2979V49.1504H98.082V51.7871H95.2842V60.6348C95.2842 61.2402 95.4014 61.6797 95.6357 61.9531C95.8799 62.2168 96.3096 62.3486 96.9248 62.3486C97.335 62.3486 97.75 62.2998 98.1699 62.2021V64.9561C97.3594 65.1807 96.5781 65.293 95.8262 65.293C93.0918 65.293 91.7246 63.7842 91.7246 60.7666V51.7871H89.1172V49.1504H91.7246V45.2979H95.2842ZM99.708 56.9287C99.708 55.376 100.016 53.9795 100.631 52.7393C101.246 51.4893 102.11 50.5322 103.224 49.8682C104.337 49.1943 105.616 48.8574 107.062 48.8574C109.2 48.8574 110.934 49.5459 112.262 50.9229C113.6 52.2998 114.322 54.126 114.43 56.4014L114.444 57.2363C114.444 58.7988 114.142 60.1953 113.536 61.4258C112.94 62.6562 112.081 63.6084 110.958 64.2822C109.845 64.9561 108.556 65.293 107.091 65.293C104.854 65.293 103.062 64.5508 101.715 63.0664C100.377 61.5723 99.708 59.585 99.708 57.1045V56.9287ZM103.268 57.2363C103.268 58.8672 103.604 60.1465 104.278 61.0742C104.952 61.9922 105.89 62.4512 107.091 62.4512C108.292 62.4512 109.225 61.9824 109.889 61.0449C110.562 60.1074 110.899 58.7354 110.899 56.9287C110.899 55.3271 110.553 54.0576 109.859 53.1201C109.176 52.1826 108.243 51.7139 107.062 51.7139C105.899 51.7139 104.977 52.1777 104.293 53.1055C103.609 54.0234 103.268 55.4004 103.268 57.2363ZM125.753 52.4023C125.284 52.3242 124.801 52.2852 124.303 52.2852C122.672 52.2852 121.573 52.9102 121.007 54.1602V65H117.447V49.1504H120.846L120.934 50.9229C121.793 49.5459 122.984 48.8574 124.508 48.8574C125.016 48.8574 125.436 48.9258 125.768 49.0625L125.753 52.4023ZM133.194 45.2979V49.1504H135.992V51.7871H133.194V60.6348C133.194 61.2402 133.312 61.6797 133.546 61.9531C133.79 62.2168 134.22 62.3486 134.835 62.3486C135.245 62.3486 135.66 62.2998 136.08 62.2021V64.9561C135.27 65.1807 134.488 65.293 133.736 65.293C131.002 65.293 129.635 63.7842 129.635 60.7666V51.7871H127.027V49.1504H129.635V45.2979H133.194ZM145.704 65.293C143.448 65.293 141.617 64.585 140.211 63.1689C138.814 61.7432 138.116 59.8486 138.116 57.4854V57.0459C138.116 55.4639 138.419 54.0527 139.024 52.8125C139.64 51.5625 140.499 50.5908 141.603 49.8975C142.706 49.2041 143.937 48.8574 145.294 48.8574C147.452 48.8574 149.117 49.5459 150.289 50.9229C151.471 52.2998 152.062 54.248 152.062 56.7676V58.2031H141.705C141.812 59.5117 142.247 60.5469 143.009 61.3086C143.78 62.0703 144.747 62.4512 145.909 62.4512C147.54 62.4512 148.868 61.792 149.894 60.4736L151.812 62.3047C151.178 63.252 150.328 63.9893 149.264 64.5166C148.209 65.0342 147.022 65.293 145.704 65.293ZM145.279 51.7139C144.303 51.7139 143.512 52.0557 142.906 52.7393C142.311 53.4229 141.93 54.375 141.764 55.5957H148.546V55.332C148.468 54.1406 148.15 53.2422 147.594 52.6367C147.037 52.0215 146.266 51.7139 145.279 51.7139ZM161.349 62.4512C162.237 62.4512 162.975 62.1924 163.561 61.6748C164.146 61.1572 164.459 60.5176 164.498 59.7559H167.853C167.813 60.7422 167.506 61.665 166.93 62.5244C166.354 63.374 165.572 64.0479 164.586 64.5459C163.6 65.0439 162.535 65.293 161.393 65.293C159.176 65.293 157.418 64.5752 156.119 63.1396C154.82 61.7041 154.171 59.7217 154.171 57.1924V56.8262C154.171 54.4141 154.815 52.4854 156.104 51.04C157.394 49.585 159.151 48.8574 161.378 48.8574C163.263 48.8574 164.796 49.4092 165.978 50.5127C167.169 51.6064 167.794 53.0469 167.853 54.834H164.498C164.459 53.9258 164.146 53.1787 163.561 52.5928C162.984 52.0068 162.247 51.7139 161.349 51.7139C160.196 51.7139 159.308 52.1338 158.683 52.9736C158.058 53.8037 157.74 55.0684 157.73 56.7676V57.3389C157.73 59.0576 158.038 60.3418 158.653 61.1914C159.278 62.0312 160.177 62.4512 161.349 62.4512ZM174.049 50.8789C175.211 49.5312 176.681 48.8574 178.458 48.8574C181.837 48.8574 183.551 50.7861 183.6 54.6436V65H180.04V54.7754C180.04 53.6816 179.801 52.9102 179.322 52.4609C178.854 52.002 178.16 51.7725 177.242 51.7725C175.816 51.7725 174.752 52.4072 174.049 53.6768V65H170.489V42.5H174.049V50.8789Z" fill="#188469"/>
</g>
<defs>
<clipPath id="clip0">
<rect width="222" height="115" fill="white"/>
</clipPath>
</defs>
</svg>
