<svg width="222" height="115" viewBox="0 0 222 115" fill="none" xmlns="http://www.w3.org/2000/svg">
<g clip-path="url(#clip0)">
<rect width="222" height="115" fill="white"/>
<path d="M44 8H144V108H44V8Z" fill="white"/>
<circle cx="87" cy="58" r="55.5" stroke="#188469" stroke-width="3"/>
<path d="M38 86.2787H38.588L39.176 85.8175L39.764 86.2787L40.352 85.3564H40.94L41.528 85.8175L42.116 84.8952L42.704 85.3564L43.292 84.4341L44.468 85.3564L45.056 83.973L45.644 84.8952H47.996L48.584 85.3564H49.172L49.76 86.7398L50.348 85.8175H51.524L52.112 85.3564L52.7 85.8175L53.288 85.3564L53.876 86.2787L54.464 86.7398H55.052L55.64 85.8175H56.228L56.816 86.2787L57.404 85.3564L57.992 86.2787H58.58L59.168 86.7398L59.756 86.2787L60.344 86.7398H60.932L61.52 85.3564L62.108 86.2787L62.696 86.7398L63.284 86.2787L63.872 86.7398H64.46L65.048 85.8175L65.636 86.2787L66.224 84.8952L66.812 85.8175L67.4 86.2787L67.988 84.8952L68.576 85.8175L69.164 85.3564L69.752 85.8175L70.928 84.8952L71.516 83.0507L72.104 81.6673L72.692 80.745L73.868 77.9781L74.456 75.6725L75.044 76.5947L75.632 76.1336L76.808 81.6673L77.984 84.4341H78.572L79.16 83.5118L79.748 83.973L80.336 82.5895L80.924 80.2838L81.512 69.7979L82.1 40.285L82.688 14L83.276 62.8808L83.864 103L84.452 100.233L85.04 88.2435L85.628 82.7098L86.216 83.171H86.804L87.392 83.6321L88.568 82.7098H89.156L89.744 81.7876L90.332 82.2487L90.92 81.3264L92.096 82.2487L92.684 80.8653H93.272L95.624 80.4041L96.8 79.4819H97.388L97.976 78.0984L98.564 77.6373L99.152 76.715L99.74 76.2539L100.916 73.487L102.68 70.7202H103.268L103.856 68.8756L104.444 67.9534L105.62 67.0311L106.208 67.9534L106.796 69.3368L107.384 71.6425L107.972 74.8705L109.148 79.4819L109.736 81.3264L110.324 82.2487L110.912 83.6321L111.5 84.5544L112.088 84.0933L112.676 85.4767L113.264 85.0155L113.852 84.0933H114.44L115.028 83.171L116.204 84.0933L116.792 83.171L117.38 84.0933L117.968 83.6321L118.556 82.7098L119.144 83.171L119.732 82.7098L120.908 83.6321H121.496L122.084 84.0933L122.672 83.6321H123.26L123.848 84.0933H124.436L125.024 84.5544H125.612L126.2 84.0933L126.788 85.4767L127.376 84.0933L127.964 84.5544H128.552L129.14 84.0933L129.728 84.5544L130.316 84.0933L131.492 85.0155L132.08 83.6321L132.668 84.5544L133.256 85.0155H136" stroke="#188469" stroke-width="2"/>
<rect x="129" y="37" width="59" height="41" fill="white"/>
<rect x="-1" y="37" width="59" height="41" fill="white"/>
<path d="M13.9727 43.6719L20.125 60.0195L26.2627 43.6719H31.0527V65H27.3613V57.9688L27.7275 48.5645L21.4287 65H18.7773L12.4932 48.5791L12.8594 57.9688V65H9.16797V43.6719H13.9727ZM52.4688 54.8926C52.4688 56.9824 52.1074 58.8184 51.3848 60.4004C50.6621 61.9727 49.627 63.1836 48.2793 64.0332C46.9414 64.873 45.3984 65.293 43.6504 65.293C41.9219 65.293 40.3789 64.873 39.0215 64.0332C37.6738 63.1836 36.6289 61.9775 35.8867 60.415C35.1543 58.8525 34.7832 57.0508 34.7734 55.0098V53.8086C34.7734 51.7285 35.1396 49.8926 35.8721 48.3008C36.6143 46.709 37.6543 45.4932 38.9922 44.6533C40.3398 43.8037 41.8828 43.3789 43.6211 43.3789C45.3594 43.3789 46.8975 43.7988 48.2354 44.6387C49.583 45.4688 50.623 46.6699 51.3555 48.2422C52.0879 49.8047 52.459 51.626 52.4688 53.7061V54.8926ZM48.7627 53.7793C48.7627 51.416 48.3135 49.6045 47.415 48.3447C46.5264 47.085 45.2617 46.4551 43.6211 46.4551C42.0195 46.4551 40.7646 47.085 39.8564 48.3447C38.958 49.5947 38.499 51.3672 38.4795 53.6621V54.8926C38.4795 57.2363 38.9336 59.0479 39.8418 60.3271C40.7598 61.6064 42.0293 62.2461 43.6504 62.2461C45.291 62.2461 46.5508 61.6211 47.4297 60.3711C48.3184 59.1211 48.7627 57.2949 48.7627 54.8926V53.7793ZM73.0791 65H69.373L59.8662 49.8682V65H56.1602V43.6719H59.8662L69.4023 58.8623V43.6719H73.0791V65ZM106.932 46.6602H100.281V65H96.6045V46.6602H90.0127V43.6719H106.932V46.6602ZM126.355 54.8926C126.355 56.9824 125.994 58.8184 125.271 60.4004C124.549 61.9727 123.514 63.1836 122.166 64.0332C120.828 64.873 119.285 65.293 117.537 65.293C115.809 65.293 114.266 64.873 112.908 64.0332C111.561 63.1836 110.516 61.9775 109.773 60.415C109.041 58.8525 108.67 57.0508 108.66 55.0098V53.8086C108.66 51.7285 109.026 49.8926 109.759 48.3008C110.501 46.709 111.541 45.4932 112.879 44.6533C114.227 43.8037 115.77 43.3789 117.508 43.3789C119.246 43.3789 120.784 43.7988 122.122 44.6387C123.47 45.4688 124.51 46.6699 125.242 48.2422C125.975 49.8047 126.346 51.626 126.355 53.7061V54.8926ZM122.649 53.7793C122.649 51.416 122.2 49.6045 121.302 48.3447C120.413 47.085 119.148 46.4551 117.508 46.4551C115.906 46.4551 114.651 47.085 113.743 48.3447C112.845 49.5947 112.386 51.3672 112.366 53.6621V54.8926C112.366 57.2363 112.82 59.0479 113.729 60.3271C114.646 61.6064 115.916 62.2461 117.537 62.2461C119.178 62.2461 120.438 61.6211 121.316 60.3711C122.205 59.1211 122.649 57.2949 122.649 54.8926V53.7793ZM137.884 56.7822H133.753V65H130.047V43.6719H137.547C140.008 43.6719 141.907 44.2236 143.245 45.3271C144.583 46.4307 145.252 48.0273 145.252 50.1172C145.252 51.543 144.905 52.7393 144.212 53.7061C143.528 54.6631 142.571 55.4004 141.341 55.918L146.131 64.8096V65H142.161L137.884 56.7822ZM133.753 53.8086H137.562C138.812 53.8086 139.788 53.4961 140.491 52.8711C141.194 52.2363 141.546 51.3721 141.546 50.2783C141.546 49.1357 141.219 48.252 140.564 47.627C139.92 47.002 138.953 46.6797 137.664 46.6602H133.753V53.8086ZM163.445 46.6602H156.795V65H153.118V46.6602H146.526V43.6719H163.445V46.6602ZM178.724 55.4785H169.964V62.041H180.203V65H166.258V43.6719H180.101V46.6602H169.964V52.5488H178.724V55.4785ZM199.495 58.0566C199.28 60.332 198.44 62.1094 196.976 63.3887C195.511 64.6582 193.562 65.293 191.131 65.293C189.432 65.293 187.933 64.8926 186.634 64.0918C185.345 63.2812 184.349 62.1338 183.646 60.6494C182.942 59.165 182.576 57.4414 182.547 55.4785V53.4863C182.547 51.4746 182.903 49.7021 183.616 48.1689C184.329 46.6357 185.35 45.4541 186.678 44.624C188.016 43.7939 189.559 43.3789 191.307 43.3789C193.66 43.3789 195.555 44.0186 196.99 45.2979C198.426 46.5771 199.261 48.3838 199.495 50.7178H195.804C195.628 49.1846 195.179 48.0811 194.456 47.4072C193.743 46.7236 192.693 46.3818 191.307 46.3818C189.695 46.3818 188.455 46.9727 187.586 48.1543C186.727 49.3262 186.287 51.0498 186.268 53.3252V55.2148C186.268 57.5195 186.678 59.2773 187.498 60.4883C188.328 61.6992 189.539 62.3047 191.131 62.3047C192.586 62.3047 193.68 61.9775 194.412 61.3232C195.145 60.6689 195.608 59.5801 195.804 58.0566H199.495ZM219.754 65H216.062V55.5225H206.526V65H202.82V43.6719H206.526V52.5488H216.062V43.6719H219.754V65Z" fill="#188469"/>
</g>
<defs>
<clipPath id="clip0">
<rect width="222" height="115" fill="white"/>
</clipPath>
</defs>
</svg>
