<svg width="222" height="115" viewBox="0 0 222 115" fill="none" xmlns="http://www.w3.org/2000/svg">
<g clip-path="url(#clip0)">
<rect width="222" height="115" fill="white"/>
<path d="M40 8H140V108H40V8Z" fill="white"/>
<circle cx="83" cy="58" r="54.5" stroke="#188469" stroke-width="5"/>
<path d="M34 86.2787H34.588L35.176 85.8175L35.764 86.2787L36.352 85.3564H36.94L37.528 85.8175L38.116 84.8952L38.704 85.3564L39.292 84.4341L40.468 85.3564L41.056 83.973L41.644 84.8952H43.996L44.584 85.3564H45.172L45.76 86.7398L46.348 85.8175H47.524L48.112 85.3564L48.7 85.8175L49.288 85.3564L49.876 86.2787L50.464 86.7398H51.052L51.64 85.8175H52.228L52.816 86.2787L53.404 85.3564L53.992 86.2787H54.58L55.168 86.7398L55.756 86.2787L56.344 86.7398H56.932L57.52 85.3564L58.108 86.2787L58.696 86.7398L59.284 86.2787L59.872 86.7398H60.46L61.048 85.8175L61.636 86.2787L62.224 84.8952L62.812 85.8175L63.4 86.2787L63.988 84.8952L64.576 85.8175L65.164 85.3564L65.752 85.8175L66.928 84.8952L67.516 83.0507L68.104 81.6673L68.692 80.745L69.868 77.9781L70.456 75.6725L71.044 76.5947L71.632 76.1336L72.808 81.6673L73.984 84.4341H74.572L75.16 83.5118L75.748 83.973L76.336 82.5895L76.924 80.2838L77.512 69.7979L78.1 40.285L78.688 14L79.276 62.8808L79.864 103L80.452 100.233L81.04 88.2435L81.628 82.7098L82.216 83.171H82.804L83.392 83.6321L84.568 82.7098H85.156L85.744 81.7876L86.332 82.2487L86.92 81.3264L88.096 82.2487L88.684 80.8653H89.272L91.624 80.4041L92.8 79.4819H93.388L93.976 78.0984L94.564 77.6373L95.152 76.715L95.74 76.2539L96.916 73.487L98.68 70.7202H99.268L99.856 68.8756L100.444 67.9534L101.62 67.0311L102.208 67.9534L102.796 69.3368L103.384 71.6425L103.972 74.8705L105.148 79.4819L105.736 81.3264L106.324 82.2487L106.912 83.6321L107.5 84.5544L108.088 84.0933L108.676 85.4767L109.264 85.0155L109.852 84.0933H110.44L111.028 83.171L112.204 84.0933L112.792 83.171L113.38 84.0933L113.968 83.6321L114.556 82.7098L115.144 83.171L115.732 82.7098L116.908 83.6321H117.496L118.084 84.0933L118.672 83.6321H119.26L119.848 84.0933H120.436L121.024 84.5544H121.612L122.2 84.0933L122.788 85.4767L123.376 84.0933L123.964 84.5544H124.552L125.14 84.0933L125.728 84.5544L126.316 84.0933L127.492 85.0155L128.08 83.6321L128.668 84.5544L129.256 85.0155H132" stroke="#188469" stroke-width="3"/>
<rect x="125" y="37" width="59" height="41" fill="white"/>
<rect x="-5" y="37" width="59" height="41" fill="white"/>
<path d="M10.6465 47.6719L16.125 63.1406L21.5742 47.6719H27.3457V69H22.9365V63.1699L23.376 53.1064L17.6191 69H14.6016L8.85938 53.1211L9.29883 63.1699V69H4.9043V47.6719H10.6465ZM48.7031 58.8193C48.7031 60.9189 48.332 62.7598 47.5898 64.3418C46.8477 65.9238 45.7832 67.1445 44.3965 68.0039C43.0195 68.8633 41.4375 69.293 39.6504 69.293C37.8828 69.293 36.3057 68.8682 34.9189 68.0186C33.5322 67.1689 32.458 65.958 31.6963 64.3857C30.9346 62.8037 30.5488 60.9873 30.5391 58.9365V57.8818C30.5391 55.7822 30.915 53.9365 31.667 52.3447C32.4287 50.7432 33.498 49.5176 34.875 48.668C36.2617 47.8086 37.8438 47.3789 39.6211 47.3789C41.3984 47.3789 42.9756 47.8086 44.3525 48.668C45.7393 49.5176 46.8086 50.7432 47.5605 52.3447C48.3223 53.9365 48.7031 55.7773 48.7031 57.8672V58.8193ZM44.25 57.8525C44.25 55.6162 43.8496 53.917 43.0488 52.7549C42.248 51.5928 41.1055 51.0117 39.6211 51.0117C38.1465 51.0117 37.0088 51.5879 36.208 52.7402C35.4072 53.8828 35.002 55.5625 34.9922 57.7793V58.8193C34.9922 60.9971 35.3926 62.6865 36.1934 63.8877C36.9941 65.0889 38.1465 65.6895 39.6504 65.6895C41.125 65.6895 42.2578 65.1133 43.0488 63.9609C43.8398 62.7988 44.2402 61.1094 44.25 58.8926V57.8525ZM69.2402 69H64.8457L56.291 54.9668V69H51.8965V47.6719H56.291L64.8604 61.7344V47.6719H69.2402V69ZM103.195 51.2314H96.6621V69H92.2676V51.2314H85.8223V47.6719H103.195V51.2314ZM122.824 58.8193C122.824 60.9189 122.453 62.7598 121.711 64.3418C120.969 65.9238 119.904 67.1445 118.518 68.0039C117.141 68.8633 115.559 69.293 113.771 69.293C112.004 69.293 110.427 68.8682 109.04 68.0186C107.653 67.1689 106.579 65.958 105.817 64.3857C105.056 62.8037 104.67 60.9873 104.66 58.9365V57.8818C104.66 55.7822 105.036 53.9365 105.788 52.3447C106.55 50.7432 107.619 49.5176 108.996 48.668C110.383 47.8086 111.965 47.3789 113.742 47.3789C115.52 47.3789 117.097 47.8086 118.474 48.668C119.86 49.5176 120.93 50.7432 121.682 52.3447C122.443 53.9365 122.824 55.7773 122.824 57.8672V58.8193ZM118.371 57.8525C118.371 55.6162 117.971 53.917 117.17 52.7549C116.369 51.5928 115.227 51.0117 113.742 51.0117C112.268 51.0117 111.13 51.5879 110.329 52.7402C109.528 53.8828 109.123 55.5625 109.113 57.7793V58.8193C109.113 60.9971 109.514 62.6865 110.314 63.8877C111.115 65.0889 112.268 65.6895 113.771 65.6895C115.246 65.6895 116.379 65.1133 117.17 63.9609C117.961 62.7988 118.361 61.1094 118.371 58.8926V57.8525ZM133.913 61.1924H130.412V69H126.018V47.6719H133.942C136.462 47.6719 138.405 48.2334 139.772 49.3564C141.14 50.4795 141.823 52.0664 141.823 54.1172C141.823 55.5723 141.506 56.7881 140.871 57.7646C140.246 58.7314 139.294 59.5029 138.015 60.0791L142.629 68.7949V69H137.912L133.913 61.1924ZM130.412 57.6328H133.957C135.061 57.6328 135.915 57.3545 136.521 56.7979C137.126 56.2314 137.429 55.4551 137.429 54.4688C137.429 53.4629 137.141 52.6719 136.564 52.0957C135.998 51.5195 135.124 51.2314 133.942 51.2314H130.412V57.6328ZM160.5 51.2314H153.967V69H149.572V51.2314H143.127V47.6719H160.5V51.2314ZM175.852 59.7568H167.414V65.4697H177.316V69H163.02V47.6719H177.287V51.2314H167.414V56.3145H175.852V59.7568ZM196.638 61.8955C196.472 64.1904 195.622 65.9971 194.089 67.3154C192.565 68.6338 190.554 69.293 188.054 69.293C185.319 69.293 183.166 68.375 181.594 66.5391C180.031 64.6934 179.25 62.1641 179.25 58.9512V57.6475C179.25 55.5967 179.611 53.79 180.334 52.2275C181.057 50.665 182.087 49.4688 183.425 48.6387C184.772 47.7988 186.335 47.3789 188.112 47.3789C190.573 47.3789 192.556 48.0381 194.06 49.3564C195.563 50.6748 196.433 52.5254 196.667 54.9082H192.272C192.165 53.5312 191.779 52.5352 191.115 51.9199C190.461 51.2949 189.46 50.9824 188.112 50.9824C186.647 50.9824 185.549 51.5098 184.816 52.5645C184.094 53.6094 183.723 55.2354 183.703 57.4424V59.0537C183.703 61.3584 184.05 63.043 184.743 64.1074C185.446 65.1719 186.55 65.7041 188.054 65.7041C189.411 65.7041 190.422 65.3965 191.086 64.7812C191.76 64.1562 192.146 63.1943 192.243 61.8955H196.638ZM216.882 69H212.487V59.8594H203.918V69H199.523V47.6719H203.918V56.3145H212.487V47.6719H216.882V69Z" fill="#188469"/>
</g>
<defs>
<clipPath id="clip0">
<rect width="222" height="115" fill="white"/>
</clipPath>
</defs>
</svg>
