<svg width="309" height="115" viewBox="0 0 309 115" fill="none" xmlns="http://www.w3.org/2000/svg">
<rect width="309" height="115" fill="#3AAF92"/>
<path d="M8.86475 8H135.504V108H8.86475V8Z" fill="#3AAF92"/>
<path d="M9.08813 86.2787H9.65766L10.2272 85.8175L10.7967 86.2787L11.3663 85.3564H11.9358L12.5053 85.8175L13.0748 84.8952L13.6444 85.3564L14.2139 84.4341L15.353 85.3564L15.9225 83.973L16.492 84.8952H18.7701L19.3397 85.3564H19.9092L20.4787 86.7398L21.0483 85.8175H22.1873L22.7568 85.3564L23.3264 85.8175L23.8959 85.3564L24.4654 86.2787L25.035 86.7398H25.6045L26.174 85.8175H26.7435L27.3131 86.2787L27.8826 85.3564L28.4521 86.2787H29.0217L29.5912 86.7398L30.1607 86.2787L30.7303 86.7398H31.2998L31.8693 85.3564L32.4388 86.2787L33.0084 86.7398L33.5779 86.2787L34.1474 86.7398H34.717L35.2865 85.8175L35.856 86.2787L36.4255 84.8952L36.9951 85.8175L37.5646 86.2787L38.1341 84.8952L38.7037 85.8175L39.2732 85.3564L39.8427 85.8175L40.9818 84.8952L41.5513 83.0507L42.1208 81.6673L42.6904 80.745L43.8294 77.9781L44.399 75.6725L44.9685 76.5947L45.538 76.1336L46.6771 81.6673L47.8161 84.4341H48.3857L48.9552 83.5118L49.5247 83.973L50.0943 82.5895L50.6638 80.2838L51.2333 69.7979L51.8028 40.285L52.3724 14L52.9419 62.8808L53.5114 103L54.081 100.233L54.6505 88.2435L55.22 82.7098L55.7895 83.171H56.3591L56.9286 83.6321L58.0677 82.7098H58.6372L59.2067 81.7876L59.7763 82.2487L60.3458 81.3264L61.4848 82.2487L62.0544 80.8653H62.6239L64.902 80.4041L66.0411 79.4819H66.6106L67.1801 78.0984L67.7497 77.6373L68.3192 76.715L68.8887 76.2539L70.0278 73.487L71.7364 70.7202H72.3059L72.8754 68.8756L73.445 67.9534L74.584 67.0311L75.1535 67.9534L75.7231 69.3368L76.2926 71.6425L76.8621 74.8705L78.0012 79.4819L78.5707 81.3264L79.1403 82.2487L79.7098 83.6321L80.2793 84.5544L80.8488 84.0933L81.4184 85.4767L81.9879 85.0155L82.5574 84.0933H83.127L83.6965 83.171L84.8356 84.0933L85.4051 83.171L85.9746 84.0933L86.5441 83.6321L87.1137 82.7098L87.6832 83.171L88.2527 82.7098L89.3918 83.6321H89.9613L90.5308 84.0933L91.1004 83.6321H91.6699L92.2394 84.0933H92.809L93.3785 84.5544H93.948L94.5175 84.0933L95.0871 85.4767L95.6566 84.0933L96.2261 84.5544H96.7957L97.3652 84.0933L97.9347 84.5544L98.5043 84.0933L99.6433 85.0155L100.213 83.6321L100.782 84.5544L101.352 85.0155H104.01" stroke="#CF0023" stroke-width="3"/>
<circle cx="57" cy="58" r="54.5" stroke="#CF0023" stroke-width="5"/>
<rect x="99" y="37" width="170" height="41" fill="#3AAF92"/>
<path d="M85.834 46.8105L86.0186 49.292C87.5908 47.3643 89.7168 46.4004 92.3965 46.4004C95.2539 46.4004 97.2158 47.5283 98.2822 49.7842C99.8408 47.5283 102.062 46.4004 104.947 46.4004C107.354 46.4004 109.145 47.1045 110.32 48.5127C111.496 49.9072 112.084 52.0127 112.084 54.8291V69H106.137V54.8496C106.137 53.5918 105.891 52.6758 105.398 52.1016C104.906 51.5137 104.038 51.2197 102.794 51.2197C101.017 51.2197 99.7861 52.0674 99.1025 53.7627L99.123 69H93.1963V54.8701C93.1963 53.585 92.9434 52.6553 92.4375 52.0811C91.9316 51.5068 91.0703 51.2197 89.8535 51.2197C88.1719 51.2197 86.9551 51.917 86.2031 53.3115V69H80.2764V46.8105H85.834ZM115.734 57.7002C115.734 55.499 116.158 53.5371 117.006 51.8145C117.854 50.0918 119.07 48.7588 120.656 47.8154C122.256 46.8721 124.108 46.4004 126.214 46.4004C129.208 46.4004 131.648 47.3164 133.535 49.1484C135.436 50.9805 136.495 53.4688 136.714 56.6133L136.755 58.1309C136.755 61.5352 135.805 64.2695 133.904 66.334C132.004 68.3848 129.454 69.4102 126.255 69.4102C123.056 69.4102 120.499 68.3848 118.585 66.334C116.685 64.2832 115.734 61.4941 115.734 57.9668V57.7002ZM121.661 58.1309C121.661 60.2363 122.058 61.8496 122.851 62.9707C123.644 64.0781 124.778 64.6318 126.255 64.6318C127.69 64.6318 128.812 64.085 129.618 62.9912C130.425 61.8838 130.828 60.1201 130.828 57.7002C130.828 55.6357 130.425 54.0361 129.618 52.9014C128.812 51.7666 127.677 51.1992 126.214 51.1992C124.765 51.1992 123.644 51.7666 122.851 52.9014C122.058 54.0225 121.661 55.7656 121.661 58.1309ZM145.86 46.8105L146.045 49.374C147.631 47.3916 149.757 46.4004 152.423 46.4004C154.774 46.4004 156.524 47.0908 157.673 48.4717C158.821 49.8525 159.409 51.917 159.437 54.665V69H153.51V54.8086C153.51 53.5508 153.236 52.6416 152.689 52.0811C152.143 51.5068 151.233 51.2197 149.962 51.2197C148.294 51.2197 147.043 51.9307 146.209 53.3525V69H140.282V46.8105H145.86ZM170.203 69H164.256V46.8105H170.203V69ZM163.907 41.0684C163.907 40.1797 164.201 39.4482 164.789 38.874C165.391 38.2998 166.204 38.0127 167.229 38.0127C168.241 38.0127 169.048 38.2998 169.649 38.874C170.251 39.4482 170.552 40.1797 170.552 41.0684C170.552 41.9707 170.244 42.709 169.629 43.2832C169.027 43.8574 168.228 44.1445 167.229 44.1445C166.231 44.1445 165.425 43.8574 164.81 43.2832C164.208 42.709 163.907 41.9707 163.907 41.0684ZM182.2 41.3555V46.8105H185.994V51.1582H182.2V62.2324C182.2 63.0527 182.357 63.6406 182.672 63.9961C182.986 64.3516 183.588 64.5293 184.477 64.5293C185.133 64.5293 185.714 64.4814 186.22 64.3857V68.877C185.058 69.2324 183.861 69.4102 182.631 69.4102C178.475 69.4102 176.355 67.3115 176.273 63.1143V51.1582H173.033V46.8105H176.273V41.3555H182.2ZM187.758 57.7002C187.758 55.499 188.182 53.5371 189.029 51.8145C189.877 50.0918 191.094 48.7588 192.68 47.8154C194.279 46.8721 196.132 46.4004 198.237 46.4004C201.231 46.4004 203.672 47.3164 205.559 49.1484C207.459 50.9805 208.519 53.4688 208.737 56.6133L208.778 58.1309C208.778 61.5352 207.828 64.2695 205.928 66.334C204.027 68.3848 201.478 69.4102 198.278 69.4102C195.079 69.4102 192.522 68.3848 190.608 66.334C188.708 64.2832 187.758 61.4941 187.758 57.9668V57.7002ZM193.685 58.1309C193.685 60.2363 194.081 61.8496 194.874 62.9707C195.667 64.0781 196.802 64.6318 198.278 64.6318C199.714 64.6318 200.835 64.085 201.642 62.9912C202.448 61.8838 202.852 60.1201 202.852 57.7002C202.852 55.6357 202.448 54.0361 201.642 52.9014C200.835 51.7666 199.7 51.1992 198.237 51.1992C196.788 51.1992 195.667 51.7666 194.874 52.9014C194.081 54.0225 193.685 55.7656 193.685 58.1309ZM224.897 52.3682C224.091 52.2588 223.38 52.2041 222.765 52.2041C220.522 52.2041 219.053 52.9629 218.355 54.4805V69H212.429V46.8105H218.027L218.191 49.4561C219.381 47.4189 221.028 46.4004 223.134 46.4004C223.79 46.4004 224.405 46.4893 224.979 46.667L224.897 52.3682ZM235.89 41.3555V46.8105H239.684V51.1582H235.89V62.2324C235.89 63.0527 236.047 63.6406 236.361 63.9961C236.676 64.3516 237.277 64.5293 238.166 64.5293C238.822 64.5293 239.403 64.4814 239.909 64.3857V68.877C238.747 69.2324 237.551 69.4102 236.32 69.4102C232.164 69.4102 230.045 67.3115 229.963 63.1143V51.1582H226.723V46.8105H229.963V41.3555H235.89ZM253.198 69.4102C249.944 69.4102 247.292 68.4121 245.241 66.416C243.204 64.4199 242.186 61.7607 242.186 58.4385V57.8643C242.186 55.6357 242.616 53.6465 243.478 51.8965C244.339 50.1328 245.556 48.7793 247.128 47.8359C248.714 46.8789 250.519 46.4004 252.542 46.4004C255.577 46.4004 257.963 47.3574 259.699 49.2715C261.449 51.1855 262.324 53.8994 262.324 57.4131V59.833H248.194C248.386 61.2822 248.96 62.4443 249.917 63.3193C250.888 64.1943 252.111 64.6318 253.588 64.6318C255.871 64.6318 257.655 63.8047 258.94 62.1504L261.853 65.4111C260.964 66.6689 259.761 67.6533 258.243 68.3643C256.726 69.0615 255.044 69.4102 253.198 69.4102ZM252.521 51.1992C251.346 51.1992 250.389 51.5957 249.65 52.3887C248.926 53.1816 248.461 54.3164 248.256 55.793H256.5V55.3213C256.473 54.0088 256.117 52.9971 255.434 52.2861C254.75 51.5615 253.779 51.1992 252.521 51.1992ZM274.937 64.6318C276.03 64.6318 276.919 64.3311 277.603 63.7295C278.286 63.1279 278.642 62.3281 278.669 61.3301H284.227C284.213 62.834 283.803 64.2148 282.996 65.4727C282.189 66.7168 281.082 67.6875 279.674 68.3848C278.279 69.0684 276.734 69.4102 275.039 69.4102C271.867 69.4102 269.365 68.4053 267.533 66.3955C265.701 64.3721 264.785 61.583 264.785 58.0283V57.6387C264.785 54.2207 265.694 51.4932 267.513 49.4561C269.331 47.4189 271.826 46.4004 274.998 46.4004C277.773 46.4004 279.995 47.1934 281.663 48.7793C283.345 50.3516 284.199 52.4502 284.227 55.0752H278.669C278.642 53.9268 278.286 52.9971 277.603 52.2861C276.919 51.5615 276.017 51.1992 274.896 51.1992C273.515 51.1992 272.469 51.7051 271.758 52.7168C271.061 53.7148 270.712 55.3418 270.712 57.5977V58.2129C270.712 60.4961 271.061 62.1367 271.758 63.1348C272.455 64.1328 273.515 64.6318 274.937 64.6318ZM293.394 49.2305C294.966 47.3438 296.941 46.4004 299.32 46.4004C304.133 46.4004 306.573 49.1963 306.642 54.7881V69H300.715V54.9521C300.715 53.6807 300.441 52.7441 299.895 52.1426C299.348 51.5273 298.438 51.2197 297.167 51.2197C295.431 51.2197 294.173 51.8896 293.394 53.2295V69H287.467V37.5H293.394V49.2305Z" fill="white"/>
</svg>
