<svg width="222" height="115" viewBox="0 0 222 115" fill="none" xmlns="http://www.w3.org/2000/svg">
<g clip-path="url(#clip0)">
<rect width="222" height="115" fill="white"/>
<path d="M38 8H138V108H38V8Z" fill="white"/>
<path d="M39 86.2787H39.588L40.176 85.8175L40.764 86.2787L41.352 85.3564H41.94L42.528 85.8175L43.116 84.8952L43.704 85.3564L44.292 84.4341L45.468 85.3564L46.056 83.973L46.644 84.8952H48.996L49.584 85.3564H50.172L50.76 86.7398L51.348 85.8175H52.524L53.112 85.3564L53.7 85.8175L54.288 85.3564L54.876 86.2787L55.464 86.7398H56.052L56.64 85.8175H57.228L57.816 86.2787L58.404 85.3564L58.992 86.2787H59.58L60.168 86.7398L60.756 86.2787L61.344 86.7398H61.932L62.52 85.3564L63.108 86.2787L63.696 86.7398L64.284 86.2787L64.872 86.7398H65.46L66.048 85.8175L66.636 86.2787L67.224 84.8952L67.812 85.8175L68.4 86.2787L68.988 84.8952L69.576 85.8175L70.164 85.3564L70.752 85.8175L71.928 84.8952L72.516 83.0507L73.104 81.6673L73.692 80.745L74.868 77.9781L75.456 75.6725L76.044 76.5947L76.632 76.1336L77.808 81.6673L78.984 84.4341H79.572L80.16 83.5118L80.748 83.973L81.336 82.5895L81.924 80.2839L82.512 69.7979L83.1 40.285L83.688 14L84.276 62.8808L84.864 103L85.452 100.233L86.04 88.2435L86.628 82.7098L87.216 83.171H87.804L88.392 83.6321L89.568 82.7098H90.156L90.744 81.7876L91.332 82.2487L91.92 81.3264L93.096 82.2487L93.684 80.8653H94.272L96.624 80.4041L97.8 79.4819H98.388L98.976 78.0984L99.564 77.6373L100.152 76.715L100.74 76.2539L101.916 73.487L103.68 70.7202H104.268L104.856 68.8756L105.444 67.9534L106.62 67.0311L107.208 67.9534L107.796 69.3368L108.384 71.6425L108.972 74.8705L110.148 79.4819L110.736 81.3264L111.324 82.2487L111.912 83.6321L112.5 84.5544L113.088 84.0933L113.676 85.4767L114.264 85.0155L114.852 84.0933H115.44L116.028 83.171L117.204 84.0933L117.792 83.171L118.38 84.0933L118.968 83.6321L119.556 82.7098L120.144 83.171L120.732 82.7098L121.908 83.6321H122.496L123.084 84.0933L123.672 83.6321H124.26L124.848 84.0933H125.436L126.024 84.5544H126.612L127.2 84.0933L127.788 85.4767L128.376 84.0933L128.964 84.5544H129.552L130.14 84.0933L130.728 84.5544L131.316 84.0933L132.492 85.0155L133.08 83.6321L133.668 84.5544L134.256 85.0155H137" stroke="#188469" stroke-width="3"/>
<circle cx="88" cy="58" r="54.5" stroke="#188469" stroke-width="5"/>
<rect x="123" y="37" width="59" height="41" fill="white"/>
<rect x="-7" y="37" width="59" height="41" fill="white"/>
<path d="M6.52832 42.5088L6.68213 44.5767C7.99235 42.9702 9.764 42.167 11.9971 42.167C14.3783 42.167 16.0132 43.1069 16.9019 44.9868C18.2007 43.1069 20.0521 42.167 22.4561 42.167C24.4613 42.167 25.9538 42.7537 26.9336 43.9272C27.9134 45.0894 28.4033 46.8439 28.4033 49.1909V61H23.4473V49.208C23.4473 48.1598 23.2422 47.3965 22.832 46.918C22.4219 46.4281 21.6984 46.1831 20.6616 46.1831C19.1805 46.1831 18.1551 46.8895 17.5854 48.3022L17.6025 61H12.6636V49.2251C12.6636 48.1541 12.4528 47.3794 12.0312 46.9009C11.6097 46.4224 10.8919 46.1831 9.87793 46.1831C8.47656 46.1831 7.46257 46.7642 6.83594 47.9263V61H1.89697V42.5088H6.52832ZM34.9453 51.5835C34.9453 49.7492 35.2985 48.1143 36.0049 46.6787C36.7113 45.2432 37.7253 44.1323 39.0469 43.3462C40.3799 42.5601 41.9237 42.167 43.6782 42.167C46.1733 42.167 48.207 42.9303 49.7793 44.457C51.363 45.9837 52.2459 48.0573 52.4282 50.6777L52.4624 51.9424C52.4624 54.7793 51.6706 57.0579 50.0869 58.7783C48.5033 60.4873 46.3784 61.3418 43.7124 61.3418C41.0464 61.3418 38.9159 60.4873 37.3208 58.7783C35.7371 57.0693 34.9453 54.7451 34.9453 51.8057V51.5835ZM39.8843 51.9424C39.8843 53.6969 40.2147 55.0413 40.8755 55.9756C41.5363 56.8984 42.4819 57.3599 43.7124 57.3599C44.9087 57.3599 45.8429 56.9041 46.5151 55.9927C47.1873 55.0698 47.5234 53.6001 47.5234 51.5835C47.5234 49.8631 47.1873 48.5301 46.5151 47.5845C45.8429 46.6388 44.8973 46.166 43.6782 46.166C42.4705 46.166 41.5363 46.6388 40.8755 47.5845C40.2147 48.5187 39.8843 49.9714 39.8843 51.9424ZM63.5503 42.5088L63.7041 44.645C65.0257 42.993 66.7974 42.167 69.019 42.167C70.9787 42.167 72.437 42.7424 73.394 43.8931C74.3511 45.0438 74.841 46.7642 74.8638 49.0542V61H69.9248V49.1738C69.9248 48.1257 69.6969 47.368 69.2412 46.9009C68.7855 46.4224 68.0278 46.1831 66.9683 46.1831C65.5783 46.1831 64.5358 46.7756 63.8408 47.9604V61H58.9019V42.5088H63.5503Z" fill="#188469"/>
<path d="M96.8101 40.9629V45.5088H99.9717V49.1318H96.8101V58.3604C96.8101 59.0439 96.9411 59.5339 97.2031 59.8301C97.4652 60.1263 97.9665 60.2744 98.707 60.2744C99.2539 60.2744 99.7381 60.2345 100.16 60.1548V63.8975C99.1912 64.1937 98.1943 64.3418 97.1689 64.3418C93.7054 64.3418 91.9395 62.5929 91.8711 59.0952V49.1318H89.1709V45.5088H91.8711V40.9629H96.8101ZM104.941 54.5835C104.941 52.7492 105.295 51.1143 106.001 49.6787C106.707 48.2432 107.721 47.1323 109.043 46.3462C110.376 45.5601 111.92 45.167 113.674 45.167C116.169 45.167 118.203 45.9303 119.775 47.457C121.359 48.9837 122.242 51.0573 122.424 53.6777L122.458 54.9424C122.458 57.7793 121.667 60.0579 120.083 61.7783C118.499 63.4873 116.375 64.3418 113.708 64.3418C111.042 64.3418 108.912 63.4873 107.317 61.7783C105.733 60.0693 104.941 57.7451 104.941 54.8057V54.5835ZM109.88 54.9424C109.88 56.6969 110.211 58.0413 110.872 58.9756C111.532 59.8984 112.478 60.3599 113.708 60.3599C114.905 60.3599 115.839 59.9041 116.511 58.9927C117.183 58.0698 117.52 56.6001 117.52 54.5835C117.52 52.8631 117.183 51.5301 116.511 50.5845C115.839 49.6388 114.893 49.166 113.674 49.166C112.467 49.166 111.532 49.6388 110.872 50.5845C110.211 51.5187 109.88 52.9714 109.88 54.9424ZM139.391 50.1401C138.719 50.049 138.126 50.0034 137.614 50.0034C135.745 50.0034 134.521 50.6357 133.939 51.9004V64H129V45.5088H133.666L133.803 47.7134C134.794 46.0158 136.167 45.167 137.921 45.167C138.468 45.167 138.981 45.241 139.459 45.3892L139.391 50.1401ZM152.051 40.9629V45.5088H155.213V49.1318H152.051V58.3604C152.051 59.0439 152.182 59.5339 152.444 59.8301C152.706 60.1263 153.208 60.2744 153.948 60.2744C154.495 60.2744 154.979 60.2345 155.401 60.1548V63.8975C154.432 64.1937 153.436 64.3418 152.41 64.3418C148.947 64.3418 147.181 62.5929 147.112 59.0952V49.1318H144.412V45.5088H147.112V40.9629H152.051ZM169.975 64.3418C167.264 64.3418 165.053 63.5101 163.344 61.8467C161.647 60.1833 160.798 57.9673 160.798 55.1987V54.7202C160.798 52.8631 161.157 51.2054 161.875 49.7471C162.592 48.2773 163.606 47.1494 164.917 46.3633C166.238 45.5658 167.742 45.167 169.428 45.167C171.958 45.167 173.946 45.9645 175.393 47.5596C176.851 49.1546 177.58 51.4162 177.58 54.3442V56.3608H165.805C165.965 57.5685 166.443 58.5369 167.241 59.2661C168.05 59.9953 169.069 60.3599 170.3 60.3599C172.202 60.3599 173.689 59.6706 174.76 58.292L177.187 61.0093C176.446 62.0575 175.444 62.8778 174.179 63.4702C172.915 64.0513 171.513 64.3418 169.975 64.3418ZM169.411 49.166C168.431 49.166 167.634 49.4964 167.019 50.1572C166.415 50.818 166.027 51.7637 165.856 52.9941H172.727V52.6011C172.704 51.5073 172.408 50.6642 171.838 50.0718C171.268 49.4679 170.459 49.166 169.411 49.166ZM191.59 60.3599C192.502 60.3599 193.242 60.1092 193.812 59.6079C194.382 59.1066 194.678 58.4401 194.701 57.6084H199.332C199.321 58.8617 198.979 60.0124 198.307 61.0605C197.634 62.0973 196.712 62.9062 195.538 63.4873C194.376 64.057 193.089 64.3418 191.676 64.3418C189.033 64.3418 186.948 63.5044 185.421 61.8296C183.894 60.1434 183.131 57.8192 183.131 54.8569V54.5322C183.131 51.6839 183.889 49.411 185.404 47.7134C186.919 46.0158 188.998 45.167 191.642 45.167C193.954 45.167 195.806 45.8278 197.196 47.1494C198.597 48.4596 199.309 50.2085 199.332 52.396H194.701C194.678 51.439 194.382 50.6642 193.812 50.0718C193.242 49.4679 192.49 49.166 191.556 49.166C190.405 49.166 189.534 49.5876 188.941 50.4307C188.36 51.2624 188.07 52.6182 188.07 54.498V55.0107C188.07 56.9134 188.36 58.2806 188.941 59.1123C189.522 59.944 190.405 60.3599 191.59 60.3599ZM210.471 47.5254C211.781 45.9531 213.428 45.167 215.41 45.167C219.421 45.167 221.454 47.4969 221.511 52.1567V64H216.572V52.2935C216.572 51.2339 216.344 50.4535 215.889 49.9521C215.433 49.4395 214.675 49.1831 213.616 49.1831C212.169 49.1831 211.121 49.7414 210.471 50.8579V64H205.532V37.75H210.471V47.5254Z" fill="#188469"/>
</g>
<defs>
<clipPath id="clip0">
<rect width="222" height="115" fill="white"/>
</clipPath>
</defs>
</svg>
